<?xml version="1.0" encoding="UTF-8"?>
<svg id="Layer_1" xmlns="http://www.w3.org/2000/svg" xmlns:xlink="http://www.w3.org/1999/xlink" version="1.1" viewBox="0 0 335.9 71">
  <!-- Generator: Adobe Illustrator 29.3.1, SVG Export Plug-In . SVG Version: 2.1.0 Build 151)  -->
  <defs>
    <style>
      .st0 {
        fill: none;
      }

      .st1 {
        fill: #fff;
      }

      .st2 {
        clip-path: url(#clippath);
      }
    </style>
    <clipPath id="clippath">
      <rect class="st0" x="1.6" width="75.9" height="71"/>
    </clipPath>
  </defs>
  <g class="st2">
    <path class="st1" d="M51.3,70.6c-6.1-.7-11.2-4.8-15.6-8.9-1.8-1.9-3.6-4-4.5-6.6-.4-2.2-.8-6.8,2.4-6.8,2.3.2,3.7,2.6,4.5,4.5,1.2-2.1,3.1-5.1,6-4.5,3.3,1.2,2.5,5.6.8,7.9-1,1.5-2.3,2.9-3.5,4.2-.4.5-1.3.1-1.2-.5,0-.7,1.5-1.8,1.9-2.4,1.2-1.3,2.3-2.8,2.8-4.5.3-1.3,0-3.5-1.8-3.2-1.8.6-2.9,2.4-3.8,4-.2.6-.1,1.3-.5,1.7-.3.4-1,.2-1.2-.2-.6-1.3-.8-2.7-1.6-3.8-1.3-1.9-3.3-2.8-3.5.3,0,1.4,0,2.8.6,4.1,1.3,2.3,2.9,4.3,4.9,6.1,3.1,2.7,6.4,5.3,10.4,6.6,1.7.6,3.5,1,5.3.7,3.3-.8,6.3-3.2,7.4-6.5,2-5.7,0-11.6-1.8-17.1-6.7-1.1-10.8-7.3-13.4-13-4.7,2.1-10.3,2.4-15.2.5-2.4,5.2-5.6,10.6-11,13.2-1.3,5.8-5,13.6-2,19.3,1.9,3.2,7,3.7,10.3,2.4,1.6-.6,3.2-1.5,4.5-2.6.6-.3,1.6-2.3,2.2-1.6.1.2.1.7,0,.7-1.5,3-4.8,4.6-8,5.4-3.2.7-7.2,0-9.4-2.6-4.4-5.8-.6-14,.9-20.3-6.1,2-13.2-1.2-15.3-7.4-1.3-3.2-1.2-6.9.4-9.9,1.8-3.8,6.6-6.4,10.5-4.3,6.6,3.8,7.8,12.3,6.3,19.1,4.5-2.6,7.2-7.4,9.3-12-4-1.8-7.3-5.1-9.5-8.9-3.2-5.1-5.6-11.8-2.6-17.6,1.1-2,2.6-4,4.7-5C24.2,0,26.7,0,28.9.6c2.4,1,4.1,3,5,5.3,3.2,8.4.9,17.9-2.6,25.8,4.5,1.7,9.6,1.4,14-.6-2.8-6.6-5.3-14-3.4-21.2.8-2.6,2.4-5.1,4.7-6.7,3.9-2.2,8.6-1,10.7,3,2.3,4.4,1.7,9.8,0,14.3-1.9,4.8-5.8,8.7-10.3,11.2,2.3,5.2,5.8,10.7,11.7,12.1-1.4-5.2-1.9-11.2,1.1-15.9,2.7-4.8,9.8-7.3,14.4-3.6,2.2,1.7,3.1,4.6,3,7.3-.3,3.2-2,6-4.1,8.3-3.1,3.5-7.6,6-12.4,5.7,1.9,5.8,3.8,12.4,1.2,18.3-1.7,4-6.2,7-10.6,6.6ZM14.3,46.1c1.4,0,2.9-.3,4.2-.8.9-3.9,1.2-8.1,0-11.9-1.7-5.1-6.9-10.1-12-5.7-4,3.8-4,9.4-1.1,13.8,2,2.9,5.5,4.6,9,4.6ZM61.2,44.3c4.8.3,9.1-2.7,11.9-6.4,2.4-2.9,3.7-6.8,1.9-10.4-2.8-5.4-10.7-3.9-13.5.7-3.3,4.7-2.6,10.8-1.1,16,.3,0,.6,0,.8,0ZM30,31.2c2.6-5.8,4.4-12.1,4-18.5-.3-3.7-1.1-8-4.4-10.1-1.8-1.2-4.2-1.2-6.2-.5-3.7,1.4-6,6-5.9,9.8,0,3.8,1.6,7.3,3.5,10.6,2.1,3.7,5.1,7,9,8.8ZM45.6,28c.3.7.5,1.3.8,2l.3.6c5.5-3,9.9-8.4,10.6-14.8.5-3.6.2-7.8-2.5-10.5-1.7-1.7-4.3-2-6.5-1.2-3,1.2-4.7,4.5-5.3,7.6-1.1,5.5.5,11.1,2.5,16.3h0Z"/>
  </g>
  <path class="st1" d="M94.8,33.3v-1.4c-.1,0,2-.5,2-.5,0,0,0-.3,0-.6,0-.3,0-.9,0-1.6,0-.7,0-1.7,0-3v-7.4c0-1.2,0-2.1,0-2.8,0-.7,0-1.2,0-1.6,0-.3,0-.5,0-.6l-2.3-.5v-1.4h7.9c2.4,0,4.3.5,5.6,1.6,1.3,1.1,2,2.6,2,4.6s-.3,2.5-1,3.5c-.7,1-1.6,1.8-2.8,2.3-1.2.5-2.5.8-3.9.8s-1.1,0-1.5,0c-.5,0-.9-.1-1.3-.2v-2c.5.2,1,.3,1.4.4.4,0,.9.1,1.3.1,1.4,0,2.5-.4,3.4-1.1.8-.7,1.2-1.8,1.2-3.4s-.5-3-1.4-3.8c-.9-.8-2-1.2-3.4-1.2h-1.9c0,.1,0,.5,0,1,0,.5,0,1.2,0,1.9,0,.8,0,1.6,0,2.4v7.4c0,1.3,0,2.2,0,3,0,.7,0,1.2,0,1.5,0,.3,0,.5,0,.6l3,.5v1.5h-8.5Z"/>
  <path class="st1" d="M134.9,33.5c-.7,0-1.3-.1-1.9-.1-.5,0-1.1,0-1.5,0h-12.5v-1.4c-.1,0,2.1-.5,2.1-.5,0-.1,0-.4,0-.8,0-.4,0-1,0-1.8,0-.8,0-1.7,0-2.7v-6.9c0-1.1,0-2,0-2.8,0-.8,0-1.4,0-1.8,0-.4,0-.7,0-.8l-2.3-.5v-1.4h12.9c.4,0,.8,0,1.2,0,.4,0,.9,0,1.4,0l.7,4.8-1.6.3-1.2-3.1c-.2,0-.4,0-.7,0-.2,0-.5,0-.8,0h-4.1c-.5,0-.9,0-1.2,0-.3,0-.7,0-1,0,0,0,0,.4,0,.8,0,.4,0,1,0,1.5,0,.6,0,1.2,0,1.8v9.8c0,.5,0,1,0,1.5,0,.5,0,.9,0,1.3,0,.4,0,.6,0,.8.4,0,.7,0,1.1,0,.4,0,.8,0,1.3,0h3.5c.5,0,1,0,1.3,0,.3,0,.6,0,.8,0,.2,0,.4,0,.5,0l1.9-3.5,1.6.3-1.5,5.3ZM130.9,25.8l-.4-2.5c-.1,0-.3,0-.6-.1-.3,0-.6,0-1.1,0h-2.8c-.3,0-.7,0-1,0-.4,0-.8,0-1.1,0v-2c.4,0,.8,0,1.1,0,.4,0,.7,0,1,0h2.8c.4,0,.8,0,1.1,0,.3,0,.5,0,.6-.1l.4-2.5h1.6v7.1h-1.6Z"/>
  <path class="st1" d="M162,11.7l.8,5.9-1.6.2-1.5-4.1c-.2,0-.4,0-.7,0-.3,0-.5,0-.7,0h-2.3c-.4,0-.8,0-1.1,0,0,.2,0,.7,0,1.4v10.1c0,1.5,0,2.9,0,4,0,1.1,0,1.9,0,2.2l3.1.4v1.5h-9.4v-1.5c0,0,3-.4,3-.4,0-.4,0-1.1,0-2.2,0-1.1,0-2.5,0-4v-10.1c0-.7,0-1.2,0-1.4-.3,0-.7,0-1.1,0h-2.4c-.2,0-.4,0-.6,0-.2,0-.5,0-.7,0l-1.5,4.2-1.6-.2.8-5.9c.3,0,.5,0,.9,0,.3,0,.6,0,.9,0,.3,0,.6,0,.9,0h12.2c.3,0,.6,0,.9,0,.3,0,.6,0,.9,0,.3,0,.6,0,.9,0Z"/>
  <path class="st1" d="M181.7,33.3v-1.4c0,0,1.7-.5,1.7-.5l7.5-18.9,2.1-1.3,7.9,20.2,1.8.5v1.4h-7.5v-1.4c0,0,2.1-.5,2.1-.5l-2.1-5.4-.4-1.1-4-9.9.8-.5-3.8,10.4-.4,1.1-1.9,5.4,2.2.5v1.4h-6.2ZM186.8,26.5v-1.9c.5,0,1.1,0,1.9,0,.8,0,1.8,0,3,0s2.1,0,2.9,0c.8,0,1.4,0,1.9,0v1.9c-.8,0-1.6,0-2.5,0-.8,0-1.6,0-2.4,0s-1.5,0-2.3,0c-.8,0-1.7,0-2.6,0Z"/>
  <path class="st1" d="M226.8,28.1v-8.2c0-1.4,0-2.6,0-3.5,0-.9,0-1.5,0-1.9,0-.4,0-.7,0-.8l-2.5-.5v-1.4h7v1.4c.1,0-2.1.5-2.1.5,0,0,0,.3,0,.8,0,.4,0,1.1-.1,1.9,0,.9,0,2,0,3.4v11c0,.8,0,1.6,0,2.5h-1.6l-13.4-18h.8v9.8c0,1.5,0,2.6,0,3.5,0,.9,0,1.5,0,2,0,.4,0,.7.1.8l2.5.5v1.4h-7.1v-1.4c-.1,0,2.1-.5,2.1-.5,0,0,0-.4.1-.8,0-.4,0-1.1,0-1.9,0-.9,0-2.1,0-3.5v-6.3c0-1.1,0-2,0-2.7,0-.7,0-1.3,0-1.6,0-.4,0-.7-.1-.8l-2.2-.5v-1.4h5.1l12.3,16.2h-.6Z"/>
  <path class="st1" d="M252.2,33.6c-2.2,0-4.2-.4-6-1.2-1.8-.8-3.2-2-4.3-3.6-1-1.6-1.6-3.6-1.6-6s.3-3,.8-4.3c.6-1.4,1.3-2.6,2.4-3.6,1-1,2.3-1.9,3.8-2.4,1.5-.6,3.2-.9,5.1-.9s2.1,0,3.2.3c1.1.2,2.1.5,2.9.8l.2,4.8h-1.6c0,.1-1.1-3.1-1.1-3.1-.5-.3-1.1-.6-1.9-.7-.8-.2-1.5-.2-2.2-.2-1.9,0-3.4.4-4.6,1.2-1.2.8-2.1,1.8-2.6,3.2-.6,1.3-.8,2.8-.8,4.3s.4,3.8,1.1,5.3c.8,1.4,1.8,2.5,3,3.3,1.3.7,2.7,1.1,4.3,1.1s1.4,0,2.3-.3c.8-.2,1.6-.5,2.3-1l-.9,2v-3.8c0-.8,0-1.5,0-2.1,0-.6,0-1.1-.1-1.4l-2.5-.4v-1.5h7.2v1.4c0,0-1.5.4-1.5.4v2.6c0,.8,0,1.6,0,2.1,0,.6,0,1.2,0,1.8-.9.6-2.1,1.1-3.4,1.5-1.3.3-2.6.5-3.8.5Z"/>
  <path class="st1" d="M285.5,33.5c-.7,0-1.3-.1-1.9-.1-.5,0-1.1,0-1.5,0h-12.5v-1.4c-.1,0,2.1-.5,2.1-.5,0-.1,0-.4,0-.8,0-.4,0-1,0-1.8,0-.8,0-1.7,0-2.7v-6.9c0-1.1,0-2,0-2.8,0-.8,0-1.4,0-1.8,0-.4,0-.7,0-.8l-2.3-.5v-1.4h12.9c.4,0,.8,0,1.2,0,.4,0,.9,0,1.4,0l.7,4.8-1.6.3-1.2-3.1c-.2,0-.4,0-.7,0-.2,0-.5,0-.8,0h-4.1c-.5,0-.9,0-1.2,0-.3,0-.7,0-1,0,0,0,0,.4,0,.8,0,.4,0,1,0,1.5,0,.6,0,1.2,0,1.8v9.8c0,.5,0,1,0,1.5,0,.5,0,.9,0,1.3,0,.4,0,.6,0,.8.4,0,.7,0,1.1,0,.4,0,.8,0,1.3,0h3.5c.5,0,1,0,1.3,0,.3,0,.6,0,.8,0,.2,0,.4,0,.5,0l1.9-3.5,1.6.3-1.5,5.3ZM281.4,25.8l-.4-2.5c-.1,0-.3,0-.6-.1-.3,0-.6,0-1.1,0h-2.8c-.3,0-.7,0-1,0-.4,0-.8,0-1.1,0v-2c.4,0,.8,0,1.1,0,.4,0,.7,0,1,0h2.8c.4,0,.8,0,1.1,0,.3,0,.5,0,.6-.1l.4-2.5h1.6v7.1h-1.6Z"/>
  <path class="st1" d="M310.7,33.5c-.3,0-.7,0-1.1-.1-.4,0-.8,0-1.3,0-.4,0-.8,0-1.1,0h-11.7v-1.4c0,0,2.1-.5,2.1-.5,0-.1,0-.4,0-.8,0-.4,0-1,0-1.8,0-.8,0-1.7,0-2.7v-9.6c0-.8,0-1.4,0-1.8,0-.4,0-.7-.1-.8l-2.2-.5v-1.4h8.6v1.5c.1,0-2.9.5-2.9.5,0,0,0,.3-.1.7,0,.4,0,1,0,1.8,0,.8,0,1.7,0,2.9v6.9c0,1.3,0,2.4,0,3.3,0,.9,0,1.5,0,1.8.3,0,.7,0,1,0,.4,0,.8,0,1.3,0h2.7c.6,0,1,0,1.4,0,.4,0,.8,0,1.2-.1l1.9-3.6,1.6.4-1.5,5.6Z"/>
  <path class="st1" d="M326.1,33.6c-1.1,0-2.2-.1-3.3-.4-1.1-.3-2-.6-2.8-1l-.2-4.7h1.6c0-.1,1,3.1,1,3.1.6.4,1.2.7,1.9.9.7.2,1.5.3,2.3.3,1.2,0,2.2-.3,2.9-.9.7-.6,1.1-1.4,1.1-2.4s-.3-1.6-.8-2.1c-.5-.6-1.2-1.1-2-1.5-.8-.4-1.7-.8-2.6-1.3-.9-.4-1.8-.9-2.6-1.4-.8-.5-1.5-1.2-2-1.9-.5-.8-.8-1.7-.8-2.9s.3-2.2,1-3.1c.7-.9,1.6-1.6,2.8-2.1s2.5-.8,4-.8,1.2,0,1.8.1c.6,0,1.2.2,1.7.3.5.1,1,.3,1.4.4l.3,4.6h-1.6c0,.1-1-2.9-1-2.9-.8-.5-1.8-.7-3-.7s-2.2.3-3,.9c-.7.6-1.1,1.4-1.1,2.4s.3,1.6.8,2.2c.5.6,1.2,1.1,2,1.5.8.4,1.7.8,2.6,1.3.9.4,1.8.9,2.6,1.4.8.5,1.5,1.1,2,1.9.5.7.8,1.7.8,2.8s-.3,2.2-1,3.1c-.7.9-1.6,1.6-2.8,2.1-1.2.5-2.5.8-4.1.8Z"/>
  <path class="st1" d="M122.3,65.3l.2-1.1,1.5-.4c0-.1.1-.4.2-.6,0-.3.2-.7.3-1.1.1-.5.2-1,.4-1.6l.7-3.3c.2-.9.3-1.7.4-2.2,0-.6.2-.9.2-1.2l-1.3-.4.3-1.1h5.4c1.5,0,2.7.2,3.4.7.8.4,1.1,1.1,1.1,2.1s-.3,1.5-.8,2.2c-.5.7-1.2,1.2-2.1,1.6-.9.4-1.9.6-3,.6h-1.6l.3-1.3h1.1c.9,0,1.6-.3,2.2-.8.5-.6.8-1.3.8-2.1s-.2-.9-.5-1.2c-.3-.3-.9-.4-1.6-.4h-.6c0,0,0,.2-.1.4,0,.2-.1.5-.2.8s-.2.7-.3,1.1c0,.4-.2.8-.3,1.3l-.7,3.3c0,.3-.1.7-.2,1,0,.3-.1.7-.2,1,0,.3-.1.6-.1.9,0,.2,0,.4,0,.5l1.2.4-.3,1.1h-5.6ZM133.7,65.5c-.8,0-1.6-.1-2.1-.4-.6-.3-1-.7-1.4-1.3-.4-.6-.6-1.3-.9-2.2l-.6-2.6,2.4-.5,1.9,3.6c.2.4.4.8.7,1.1.2.3.5.6.8.7.3.2.6.3,1,.4l-.3,1c-.2,0-.5,0-.7.1-.2,0-.5,0-.8,0Z"/>
  <path class="st1" d="M145,65.5c-1.1,0-2-.3-2.7-.9-.7-.6-1-1.5-1-2.6s.2-1.7.5-2.5c.3-.8.8-1.5,1.3-2.1.6-.6,1.2-1.1,1.9-1.4.7-.3,1.5-.5,2.3-.5s1.5.2,2,.5c.4.3.7.8.7,1.3s0,.6-.3,1c-.2.3-.5.7-.9,1.1-.4.4-1,.7-1.8,1.1-.8.4-1.8.8-3,1.3v-1.2c.8-.3,1.5-.6,1.9-1,.5-.3.8-.7,1-1,.2-.4.3-.7.3-1.1s0-.4-.2-.6c-.1-.2-.3-.2-.5-.2-.3,0-.7.2-1,.6-.3.4-.6,1-.8,1.7-.2.7-.3,1.5-.3,2.5s.1,1.2.4,1.6c.3.3.7.5,1.2.5s.8-.1,1.3-.3c.5-.2,1.1-.6,1.5-1.2l.7,1c-.7.9-1.4,1.6-2.2,2-.8.4-1.6.6-2.3.6Z"/>
  <path class="st1" d="M157.7,65.5c-.6,0-1.2,0-1.6-.3-.5-.2-.8-.4-1.1-.7-.3-.3-.4-.6-.4-.9s0-.5.2-.8.3-.5.5-.7c.5.6,1,1,1.5,1.4.6.4,1,.5,1.4.5s.5,0,.7-.2c.2-.2.3-.4.3-.7s-.1-.5-.3-.7c-.2-.2-.6-.6-1.3-1-.5-.3-.8-.6-1.1-.9-.3-.3-.5-.5-.6-.8-.1-.3-.2-.6-.2-.9,0-.7.2-1.3.6-1.8.4-.5.9-.9,1.5-1.2.6-.3,1.3-.5,2.1-.5s1,0,1.4.2.8.3,1,.6.4.6.4,1,0,.5-.2.8c0,.2-.2.4-.4.6-.5-.6-1-1-1.4-1.3-.4-.3-.8-.4-1.2-.4s-.6,0-.9.3c-.2.2-.3.4-.3.7s0,.3.1.5c0,.2.3.3.5.5.3.2.6.5,1.1.8.5.3.8.6,1.1.9.3.3.4.5.6.8.1.3.2.5.2.9,0,.6-.2,1.2-.6,1.8-.4.5-.9,1-1.5,1.3-.6.3-1.3.5-2.1.5Z"/>
  <path class="st1" d="M173.2,56.8c-.4,0-.8.2-1.1.6-.3.4-.6,1-.8,1.6-.2.7-.3,1.4-.3,2.2,0,.7.2,1.2.4,1.5.3.3.7.5,1.1.5s.8-.1,1.3-.4c.5-.2,1-.6,1.5-1.2l.7,1c-.7.9-1.4,1.6-2.2,2-.8.4-1.5.6-2.2.6s-1.3-.1-1.8-.4-1-.7-1.3-1.2c-.3-.5-.5-1.1-.5-1.9s.1-1.6.4-2.4c.3-.8.7-1.5,1.3-2.1s1.2-1.1,1.9-1.5c.7-.4,1.5-.6,2.4-.6s1.3.2,1.7.5c.4.3.7.7.7,1.3s0,.5-.2.8c0,.3-.2.5-.4.7-.4-.5-.9-.9-1.4-1.3-.5-.3-.9-.5-1.3-.5Z"/>
  <path class="st1" d="M185.4,55.4c.4,0,.7.1.9.3.2.2.3.5.3,1s0,.6-.2,1c-.1.4-.3.9-.4,1.4-.2.5-.3,1-.5,1.5-.2.5-.3,1-.4,1.4,0,.4-.1.7-.1.9s0,.2,0,.3c0,0,.2.1.3.1.2,0,.5-.1.8-.4.3-.3.7-.7,1-1.2.4-.5.7-1.1,1.1-1.7.4-.7.7-1.4,1-2.1.3-.8.6-1.5.8-2.3h2.8c-.2.6-.4,1.3-.7,2.1-.2.8-.4,1.6-.6,2.3-.2.8-.3,1.5-.5,2.1-.1.6-.2,1.1-.2,1.4.3-.2.6-.4.9-.7.3-.3.6-.6.9-1l.7.8c-.4.5-.8,1-1.3,1.4-.5.4-1,.8-1.5,1-.5.3-1,.4-1.4.4s-.6-.1-.8-.3c-.2-.2-.3-.5-.3-.9s0-.6.1-1c0-.5.2-1.1.4-1.8.2-.7.4-1.6.8-2.5h.2c-.3,1-.7,2-1.1,2.8-.4.8-.9,1.5-1.5,2.1-.5.6-1.1,1-1.6,1.3-.6.3-1.1.5-1.6.5s-1-.1-1.3-.4c-.3-.3-.5-.7-.5-1.2s0-.6.2-1c.1-.4.3-.9.4-1.4.2-.5.3-1.1.5-1.6s.3-1,.4-1.5c.1-.4.2-.8.2-1-.3.2-.6.4-.9.7-.3.3-.6.7-.9,1.1l-.7-.9c.4-.5.8-1,1.3-1.4.5-.4.9-.8,1.4-1,.5-.3,1-.4,1.4-.4Z"/>
  <path class="st1" d="M202.3,65.5c-1.1,0-2-.3-2.7-.9-.7-.6-1-1.5-1-2.6s.2-1.7.5-2.5c.3-.8.8-1.5,1.3-2.1.6-.6,1.2-1.1,1.9-1.4.7-.3,1.5-.5,2.3-.5s1.5.2,2,.5c.4.3.7.8.7,1.3s0,.6-.3,1c-.2.3-.5.7-.9,1.1-.4.4-1,.7-1.8,1.1-.8.4-1.8.8-3,1.3v-1.2c.8-.3,1.5-.6,1.9-1,.5-.3.8-.7,1-1,.2-.4.3-.7.3-1.1s0-.4-.2-.6c-.1-.2-.3-.2-.5-.2-.3,0-.7.2-1,.6-.3.4-.6,1-.8,1.7-.2.7-.3,1.5-.3,2.5s.1,1.2.4,1.6c.3.3.7.5,1.2.5s.8-.1,1.3-.3c.5-.2,1.1-.6,1.5-1.2l.7,1c-.7.9-1.4,1.6-2.2,2-.8.4-1.6.6-2.3.6Z"/>
  <path class="st1" d="M228.3,65.5c-1.9,0-3.5-.5-4.6-1.4-1.1-.9-1.7-2.2-1.7-3.8s.2-2.2.7-3.2c.5-1,1.1-1.9,1.9-2.6.8-.8,1.7-1.3,2.8-1.8,1.1-.4,2.3-.6,3.5-.6s1.5,0,2.2.2c.7.1,1.3.3,1.8.5l-.7,3.4h-1.4s-.2-2.2-.2-2.2c-.3-.2-.6-.3-.9-.3-.3,0-.7-.1-1.1-.1-.8,0-1.6.2-2.2.5-.6.4-1.2.8-1.6,1.5-.4.6-.8,1.3-1,2.1-.2.8-.3,1.6-.3,2.4,0,1.2.3,2.2.9,2.9.6.7,1.5,1.1,2.5,1.1s.8,0,1.2-.2c.4-.1.8-.3,1-.5l1.1-2h1.5c0,.1-1.1,3.1-1.1,3.1-.4.2-.9.4-1.4.6-.5.2-1,.3-1.6.4-.5,0-1,.1-1.5.1Z"/>
  <path class="st1" d="M243.4,65.5c-1.1,0-2-.3-2.7-.9-.7-.6-1-1.5-1-2.6s.2-1.7.5-2.5c.3-.8.8-1.5,1.3-2.1.6-.6,1.2-1.1,1.9-1.4.7-.3,1.5-.5,2.3-.5s1.5.2,2,.5c.4.3.7.8.7,1.3s0,.6-.3,1c-.2.3-.5.7-.9,1.1-.4.4-1,.7-1.8,1.1-.8.4-1.8.8-3,1.3v-1.2c.8-.3,1.5-.6,1.9-1,.5-.3.8-.7,1-1,.2-.4.3-.7.3-1.1s0-.4-.2-.6c-.1-.2-.3-.2-.5-.2-.3,0-.7.2-1,.6-.3.4-.6,1-.8,1.7-.2.7-.3,1.5-.3,2.5s.1,1.2.4,1.6c.3.3.7.5,1.2.5s.8-.1,1.3-.3c.5-.2,1.1-.6,1.5-1.2l.7,1c-.7.9-1.4,1.6-2.2,2-.8.4-1.6.6-2.3.6Z"/>
  <path class="st1" d="M261.4,65.5c-.4,0-.7-.1-.9-.3-.2-.2-.3-.5-.3-1s0-.6.1-1c.1-.4.3-.9.4-1.4.2-.5.3-1,.5-1.5.2-.5.3-1,.4-1.4.1-.4.2-.7.2-.9s-.1-.4-.4-.4-.5.2-.9.5c-.3.3-.7.7-1.1,1.2-.4.5-.8,1.1-1.1,1.7-.4.7-.7,1.4-1,2.1-.3.8-.5,1.5-.7,2.3h-2.8c.2-.6.4-1.3.6-2.1.2-.8.4-1.5.6-2.3.2-.8.4-1.5.5-2.1.1-.6.2-1.1.2-1.4-.3.2-.6.4-.9.7-.3.3-.6.7-.9,1.1l-.7-.9c.4-.5.8-1,1.3-1.4.5-.4.9-.8,1.4-1,.5-.3,1-.4,1.4-.4s.6.1.8.3c.2.2.3.5.3.9s0,.6-.1,1c0,.5-.2,1.1-.4,1.8-.2.7-.4,1.6-.8,2.6h-.2c.3-1,.7-1.9,1.2-2.8.5-.8,1-1.5,1.5-2.1.5-.6,1.1-1,1.7-1.3.6-.3,1.1-.5,1.6-.5s.9.1,1.3.4c.3.3.5.7.5,1.2s0,.6-.2,1c-.1.4-.3.9-.4,1.5-.2.5-.3,1.1-.5,1.6-.2.5-.3,1-.4,1.5-.1.4-.2.8-.2,1,.3-.2.6-.4.9-.7.3-.3.6-.6.9-1l.7.8c-.4.5-.8,1-1.3,1.4-.5.4-1,.8-1.5,1-.5.3-1,.4-1.4.4Z"/>
  <path class="st1" d="M277.8,62.5c-.7,1-1.5,1.8-2.3,2.3-.8.5-1.6.7-2.3.7s-1.1-.1-1.4-.4c-.3-.3-.5-.7-.5-1.2s0-.4,0-.6c0-.2,0-.5.1-.7l1.4-5.5h-1.5v-.7c.1,0,4.6-3,4.6-3h.6l-.8,3.1-1.3,5.5c0,.3,0,.5-.1.6,0,.1,0,.2,0,.3,0,.3.2.5.5.5s.6-.1,1-.4c.4-.3.8-.8,1.4-1.5l.7,1ZM274.6,57l.3-1.4h3.6l-.3,1.4h-3.6Z"/>
  <path class="st1" d="M286.9,65.5c-1.1,0-2-.3-2.7-.9-.7-.6-1-1.5-1-2.6s.2-1.7.5-2.5c.3-.8.8-1.5,1.3-2.1.6-.6,1.2-1.1,1.9-1.4.7-.3,1.5-.5,2.3-.5s1.5.2,2,.5c.4.3.7.8.7,1.3s0,.6-.3,1c-.2.3-.5.7-.9,1.1-.4.4-1,.7-1.8,1.1-.8.4-1.8.8-3,1.3v-1.2c.8-.3,1.5-.6,1.9-1,.5-.3.8-.7,1-1,.2-.4.3-.7.3-1.1s0-.4-.2-.6c-.1-.2-.3-.2-.5-.2-.3,0-.7.2-1,.6-.3.4-.6,1-.8,1.7-.2.7-.3,1.5-.3,2.5s.1,1.2.4,1.6c.3.3.7.5,1.2.5s.8-.1,1.3-.3c.5-.2,1.1-.6,1.5-1.2l.7,1c-.7.9-1.4,1.6-2.2,2-.8.4-1.6.6-2.3.6Z"/>
  <path class="st1" d="M304.2,57.8c-.3,0-.6.1-.8.4-.3.2-.5.6-.8,1-.3.4-.5.9-.8,1.5-.4.8-.7,1.6-1,2.4-.3.8-.5,1.5-.6,2.1h-2.9c.2-.6.4-1.3.6-2.1.2-.8.4-1.5.6-2.3.2-.8.4-1.5.5-2.1.1-.6.2-1.1.2-1.4-.3.2-.6.4-.9.7-.3.3-.6.7-.9,1.1l-.7-.9c.4-.5.8-1,1.3-1.4.5-.4.9-.8,1.4-1,.5-.3.9-.4,1.4-.4s.6,0,.7.3c.2.2.3.5.3.9s0,.6-.1,1.2c0,.6-.3,1.3-.5,2.1-.2.9-.6,1.9-1,3h0c.4-1,.7-1.9,1.1-2.9.4-.9.7-1.7,1.1-2.4.4-.7.8-1.3,1.2-1.6.4-.4.9-.6,1.5-.6s.7.1.9.3c.2.2.3.5.3.9s0,.6-.2.9c-.1.3-.3.6-.6.9-.2-.2-.4-.3-.6-.4-.2-.1-.4-.2-.6-.2Z"/>
</svg>